<svg width="66" height="66" viewBox="0 0 66 66" fill="none" xmlns="http://www.w3.org/2000/svg">
<path d="M12.375 28.875H37.125C39.4031 28.875 41.25 30.7219 41.25 33V37.125C41.25 39.4031 39.4031 41.25 37.125 41.25H12.375C10.0968 41.25 8.25 39.4031 8.25 37.125V33C8.25 30.7219 10.0968 28.875 12.375 28.875Z" fill="#6B7280" stroke="#374151" stroke-width="2"/>
<path d="M16.5 41.25L20.625 49.5L24.75 41.25" fill="#9CA3AF"/>
<path d="M16.5 41.25L20.625 49.5L24.75 41.25" stroke="#6B7280" stroke-width="1.5" stroke-linejoin="round"/>
<path d="M47.4375 30.9375H43.3125C42.1734 30.9375 41.25 31.8609 41.25 33V37.125C41.25 38.2641 42.1734 39.1875 43.3125 39.1875H47.4375C48.5766 39.1875 49.5 38.2641 49.5 37.125V33C49.5 31.8609 48.5766 30.9375 47.4375 30.9375Z" fill="#374151"/>
<path d="M52.5938 33H50.5312C49.9617 33 49.5 33.4617 49.5 34.0312V36.0938C49.5 36.6633 49.9617 37.125 50.5312 37.125H52.5938C53.1633 37.125 53.625 36.6633 53.625 36.0938V34.0312C53.625 33.4617 53.1633 33 52.5938 33Z" fill="#1F2937"/>
<path opacity="0.8" d="M55.6875 21.6562C56.257 21.6562 56.7188 21.1945 56.7188 20.625C56.7188 20.0555 56.257 19.5938 55.6875 19.5938C55.118 19.5938 54.6562 20.0555 54.6562 20.625C54.6562 21.1945 55.118 21.6562 55.6875 21.6562Z" fill="#3B82F6"/>
<path opacity="0.6" d="M59.8125 26.2969C60.6668 26.2969 61.3594 25.6043 61.3594 24.75C61.3594 23.8957 60.6668 23.2031 59.8125 23.2031C58.9582 23.2031 58.2656 23.8957 58.2656 24.75C58.2656 25.6043 58.9582 26.2969 59.8125 26.2969Z" fill="#3B82F6"/>
<path opacity="0.9" d="M53.6248 17.325C54.0804 17.325 54.4498 16.9556 54.4498 16.5C54.4498 16.0444 54.0804 15.675 53.6248 15.675C53.1692 15.675 52.7998 16.0444 52.7998 16.5C52.7998 16.9556 53.1692 17.325 53.6248 17.325Z" fill="#60A5FA"/>
<path opacity="0.7" d="M57.7502 19.8C58.4336 19.8 58.9877 19.246 58.9877 18.5625C58.9877 17.8791 58.4336 17.325 57.7502 17.325C57.0667 17.325 56.5127 17.8791 56.5127 18.5625C56.5127 19.246 57.0667 19.8 57.7502 19.8Z" fill="#60A5FA"/>
<path opacity="0.8" d="M61.875 23.7188C62.4445 23.7188 62.9062 23.257 62.9062 22.6875C62.9062 22.118 62.4445 21.6562 61.875 21.6562C61.3055 21.6562 60.8438 22.118 60.8438 22.6875C60.8438 23.257 61.3055 23.7188 61.875 23.7188Z" fill="#93C5FD"/>
<path opacity="0.8" d="M55.6875 50.5312C56.257 50.5312 56.7188 50.0695 56.7188 49.5C56.7188 48.9305 56.257 48.4688 55.6875 48.4688C55.118 48.4688 54.6562 48.9305 54.6562 49.5C54.6562 50.0695 55.118 50.5312 55.6875 50.5312Z" fill="#3B82F6"/>
<path opacity="0.6" d="M59.8125 46.9219C60.6668 46.9219 61.3594 46.2293 61.3594 45.375C61.3594 44.5207 60.6668 43.8281 59.8125 43.8281C58.9582 43.8281 58.2656 44.5207 58.2656 45.375C58.2656 46.2293 58.9582 46.9219 59.8125 46.9219Z" fill="#3B82F6"/>
<path opacity="0.9" d="M53.6248 54.45C54.0804 54.45 54.4498 54.0806 54.4498 53.625C54.4498 53.1694 54.0804 52.8 53.6248 52.8C53.1692 52.8 52.7998 53.1694 52.7998 53.625C52.7998 54.0806 53.1692 54.45 53.6248 54.45Z" fill="#60A5FA"/>
<path opacity="0.7" d="M57.7502 52.8C58.4336 52.8 58.9877 52.246 58.9877 51.5625C58.9877 50.8791 58.4336 50.325 57.7502 50.325C57.0667 50.325 56.5127 50.8791 56.5127 51.5625C56.5127 52.246 57.0667 52.8 57.7502 52.8Z" fill="#60A5FA"/>
<path opacity="0.8" d="M61.875 48.4688C62.4445 48.4688 62.9062 48.007 62.9062 47.4375C62.9062 46.868 62.4445 46.4062 61.875 46.4062C61.3055 46.4062 60.8438 46.868 60.8438 47.4375C60.8438 48.007 61.3055 48.4688 61.875 48.4688Z" fill="#93C5FD"/>
<path d="M10.3125 30.9375H6.1875C5.04841 30.9375 4.125 31.8609 4.125 33V37.125C4.125 38.2641 5.04841 39.1875 6.1875 39.1875H10.3125C11.4516 39.1875 12.375 38.2641 12.375 37.125V33C12.375 31.8609 11.4516 30.9375 10.3125 30.9375Z" fill="#9CA3AF" stroke="#6B7280"/>
<path opacity="0.3" d="M49.5 35.0625L53.625 30.9375L57.75 35.0625L53.625 39.1875L49.5 35.0625Z" fill="#3B82F6"/>
</svg>
