<svg width="49" height="49" viewBox="0 0 49 49" fill="none" xmlns="http://www.w3.org/2000/svg">
<path d="M24.2578 6.24414L36.2578 12.2441V24.2441C36.2578 33.2441 30.2578 39.2441 24.2578 42.2441C18.2578 39.2441 12.2578 33.2441 12.2578 24.2441V12.2441L24.2578 6.24414Z" fill="#10B981" stroke="#059669" stroke-width="2" stroke-linejoin="round"/>
<path opacity="0.3" d="M24.2578 9.24414L33.2578 13.7441V24.2441C33.2578 31.7441 28.7578 36.2441 24.2578 39.2441C19.7578 36.2441 15.2578 31.7441 15.2578 24.2441V13.7441L24.2578 9.24414Z" fill="#34D399"/>
<path d="M19.7578 24.2441L22.7578 27.2441L28.7578 21.2441" stroke="white" stroke-width="3" stroke-linecap="round" stroke-linejoin="round"/>
<path d="M21.2578 18.9941C21.672 18.9941 22.0078 18.6584 22.0078 18.2441C22.0078 17.8299 21.672 17.4941 21.2578 17.4941C20.8436 17.4941 20.5078 17.8299 20.5078 18.2441C20.5078 18.6584 20.8436 18.9941 21.2578 18.9941Z" fill="#ECFDF5"/>
<path d="M27.2578 18.9941C27.672 18.9941 28.0078 18.6584 28.0078 18.2441C28.0078 17.8299 27.672 17.4941 27.2578 17.4941C26.8436 17.4941 26.5078 17.8299 26.5078 18.2441C26.5078 18.6584 26.8436 18.9941 27.2578 18.9941Z" fill="#ECFDF5"/>
<path d="M24.2578 16.3691C24.8791 16.3691 25.3828 15.8655 25.3828 15.2441C25.3828 14.6228 24.8791 14.1191 24.2578 14.1191C23.6365 14.1191 23.1328 14.6228 23.1328 15.2441C23.1328 15.8655 23.6365 16.3691 24.2578 16.3691Z" fill="#ECFDF5"/>
<path opacity="0.2" d="M24.2578 45.2441C35.8558 45.2441 45.2578 35.8421 45.2578 24.2441C45.2578 12.6462 35.8558 3.24414 24.2578 3.24414C12.6598 3.24414 3.25781 12.6462 3.25781 24.2441C3.25781 35.8421 12.6598 45.2441 24.2578 45.2441Z" stroke="#10B981" stroke-dasharray="4 4"/>
</svg>
