<svg width="48" height="49" viewBox="0 0 48 49" fill="none" xmlns="http://www.w3.org/2000/svg">
<path d="M18 12.8235C15 12.8235 12 15.8235 12 18.8235V21.8235C12 23.3235 10.5 24.8235 9 24.8235C10.5 24.8235 12 26.3235 12 27.8235V30.8235C12 33.8235 15 36.8235 18 36.8235H30C33 36.8235 36 33.8235 36 30.8235V27.8235C36 26.3235 37.5 24.8235 39 24.8235C37.5 24.8235 36 23.3235 36 21.8235V18.8235C36 15.8235 33 12.8235 30 12.8235H18Z" fill="#6366F1" stroke="#4F46E5" stroke-width="2"/>
<path d="M18 20.3235C18.8284 20.3235 19.5 19.6519 19.5 18.8235C19.5 17.9951 18.8284 17.3235 18 17.3235C17.1716 17.3235 16.5 17.9951 16.5 18.8235C16.5 19.6519 17.1716 20.3235 18 20.3235Z" fill="#A5B4FC"/>
<path d="M24 17.3235C24.8284 17.3235 25.5 16.6519 25.5 15.8235C25.5 14.9951 24.8284 14.3235 24 14.3235C23.1716 14.3235 22.5 14.9951 22.5 15.8235C22.5 16.6519 23.1716 17.3235 24 17.3235Z" fill="#A5B4FC"/>
<path d="M30 20.3235C30.8284 20.3235 31.5 19.6519 31.5 18.8235C31.5 17.9951 30.8284 17.3235 30 17.3235C29.1716 17.3235 28.5 17.9951 28.5 18.8235C28.5 19.6519 29.1716 20.3235 30 20.3235Z" fill="#A5B4FC"/>
<path d="M15 26.3235C15.8284 26.3235 16.5 25.6519 16.5 24.8235C16.5 23.9951 15.8284 23.3235 15 23.3235C14.1716 23.3235 13.5 23.9951 13.5 24.8235C13.5 25.6519 14.1716 26.3235 15 26.3235Z" fill="#A5B4FC"/>
<path d="M24 27.0735C25.2426 27.0735 26.25 26.0661 26.25 24.8235C26.25 23.5808 25.2426 22.5735 24 22.5735C22.7574 22.5735 21.75 23.5808 21.75 24.8235C21.75 26.0661 22.7574 27.0735 24 27.0735Z" fill="white"/>
<path d="M33 26.3235C33.8284 26.3235 34.5 25.6519 34.5 24.8235C34.5 23.9951 33.8284 23.3235 33 23.3235C32.1716 23.3235 31.5 23.9951 31.5 24.8235C31.5 25.6519 32.1716 26.3235 33 26.3235Z" fill="#A5B4FC"/>
<path d="M18 32.3235C18.8284 32.3235 19.5 31.6519 19.5 30.8235C19.5 29.9951 18.8284 29.3235 18 29.3235C17.1716 29.3235 16.5 29.9951 16.5 30.8235C16.5 31.6519 17.1716 32.3235 18 32.3235Z" fill="#A5B4FC"/>
<path d="M24 35.3235C24.8284 35.3235 25.5 34.6519 25.5 33.8235C25.5 32.9951 24.8284 32.3235 24 32.3235C23.1716 32.3235 22.5 32.9951 22.5 33.8235C22.5 34.6519 23.1716 35.3235 24 35.3235Z" fill="#A5B4FC"/>
<path d="M30 32.3235C30.8284 32.3235 31.5 31.6519 31.5 30.8235C31.5 29.9951 30.8284 29.3235 30 29.3235C29.1716 29.3235 28.5 29.9951 28.5 30.8235C28.5 31.6519 29.1716 32.3235 30 32.3235Z" fill="#A5B4FC"/>
<path opacity="0.7" d="M18 18.8235L24 15.8235" stroke="#C7D2FE"/>
<path opacity="0.7" d="M24 15.8235L30 18.8235" stroke="#C7D2FE"/>
<path opacity="0.7" d="M18 18.8235L15 24.8235" stroke="#C7D2FE"/>
<path opacity="0.7" d="M30 18.8235L33 24.8235" stroke="#C7D2FE"/>
<path opacity="0.8" d="M15 24.8235H24" stroke="#C7D2FE" stroke-width="1.5"/>
<path opacity="0.8" d="M24 24.8235H33" stroke="#C7D2FE" stroke-width="1.5"/>
<path opacity="0.7" d="M15 24.8235L18 30.8235" stroke="#C7D2FE"/>
<path opacity="0.7" d="M33 24.8235L30 30.8235" stroke="#C7D2FE"/>
<path opacity="0.7" d="M18 30.8235L24 33.8235" stroke="#C7D2FE"/>
<path opacity="0.7" d="M24 33.8235L30 30.8235" stroke="#C7D2FE"/>
<path d="M26.25 21.8235H21.75C21.3358 21.8235 21 22.1593 21 22.5735V27.0735C21 27.4877 21.3358 27.8235 21.75 27.8235H26.25C26.6642 27.8235 27 27.4877 27 27.0735V22.5735C27 22.1593 26.6642 21.8235 26.25 21.8235Z" fill="#1E1B4B" stroke="#4F46E5"/>
<path d="M25.125 23.3235H22.875C22.6679 23.3235 22.5 23.4914 22.5 23.6985V25.9485C22.5 26.1556 22.6679 26.3235 22.875 26.3235H25.125C25.3321 26.3235 25.5 26.1556 25.5 25.9485V23.6985C25.5 23.4914 25.3321 23.3235 25.125 23.3235Z" fill="#6366F1"/>
<path opacity="0.8" d="M13.4999 16.4235C13.8313 16.4235 14.0999 16.1549 14.0999 15.8235C14.0999 15.4921 13.8313 15.2235 13.4999 15.2235C13.1685 15.2235 12.8999 15.4921 12.8999 15.8235C12.8999 16.1549 13.1685 16.4235 13.4999 16.4235Z" fill="#10B981"/>
<path opacity="0.6" d="M34.4999 17.9235C34.8313 17.9235 35.0999 17.6549 35.0999 17.3235C35.0999 16.9921 34.8313 16.7235 34.4999 16.7235C34.1685 16.7235 33.8999 16.9921 33.8999 17.3235C33.8999 17.6549 34.1685 17.9235 34.4999 17.9235Z" fill="#10B981"/>
<path opacity="0.7" d="M16.4999 35.9235C16.8313 35.9235 17.0999 35.6549 17.0999 35.3235C17.0999 34.9921 16.8313 34.7235 16.4999 34.7235C16.1685 34.7235 15.8999 34.9921 15.8999 35.3235C15.8999 35.6549 16.1685 35.9235 16.4999 35.9235Z" fill="#10B981"/>
<path opacity="0.9" d="M31.4999 37.4235C31.8313 37.4235 32.0999 37.1549 32.0999 36.8235C32.0999 36.4921 31.8313 36.2235 31.4999 36.2235C31.1685 36.2235 30.8999 36.4921 30.8999 36.8235C30.8999 37.1549 31.1685 37.4235 31.4999 37.4235Z" fill="#10B981"/>
<path d="M12 9.82349L15 6.82349L18 9.82349" stroke="#FBBF24" stroke-width="2" stroke-linecap="round" stroke-linejoin="round"/>
<path d="M30 9.82349L33 6.82349L36 9.82349" stroke="#FBBF24" stroke-width="2" stroke-linecap="round" stroke-linejoin="round"/>
</svg>
