<svg width="48" height="49" viewBox="0 0 48 49" fill="none" xmlns="http://www.w3.org/2000/svg">
<path d="M24 36.1945C30.6274 36.1945 36 30.8219 36 24.1945C36 17.567 30.6274 12.1945 24 12.1945C17.3726 12.1945 12 17.567 12 24.1945C12 30.8219 17.3726 36.1945 24 36.1945Z" fill="#FBBF24" stroke="#F59E0B" stroke-width="2"/>
<path d="M24 33.1945C28.9706 33.1945 33 29.165 33 24.1945C33 19.2239 28.9706 15.1945 24 15.1945C19.0294 15.1945 15 19.2239 15 24.1945C15 29.165 19.0294 33.1945 24 33.1945Z" fill="#FCD34D"/>
<path d="M24 30.1945C27.3137 30.1945 30 27.5082 30 24.1945C30 20.8807 27.3137 18.1945 24 18.1945C20.6863 18.1945 18 20.8807 18 24.1945C18 27.5082 20.6863 30.1945 24 30.1945Z" fill="white" stroke="#F59E0B"/>
<path d="M24 18.1945L25.5 22.6945H30L26.25 25.6945L27.75 30.1945L24 27.9445L20.25 30.1945L21.75 25.6945L18 22.6945H22.5L24 18.1945Z" fill="#F59E0B"/>
<path d="M12 12.1945L18 18.1945L15 24.1945L9 21.1945L12 12.1945Z" fill="#EF4444" stroke="#DC2626"/>
<path d="M12 12.1945L15 15.1945L12 18.1945L9 15.1945L12 12.1945Z" fill="#FECACA"/>
<path d="M36 12.1945L39 21.1945L33 24.1945L30 18.1945L36 12.1945Z" fill="#EF4444" stroke="#DC2626"/>
<path d="M36 12.1945L39 15.1945L36 18.1945L33 15.1945L36 12.1945Z" fill="#FECACA"/>
<path d="M18 18.1945L21 21.1945" stroke="#6B7280" stroke-width="2"/>
<path d="M30 18.1945L27 21.1945" stroke="#6B7280" stroke-width="2"/>
<path d="M15 39.1945C16.6569 39.1945 18 37.8513 18 36.1945C18 34.5376 16.6569 33.1945 15 33.1945C13.3431 33.1945 12 34.5376 12 36.1945C12 37.8513 13.3431 39.1945 15 39.1945Z" fill="#10B981" stroke="#059669"/>
<path d="M13.5 36.1945L15 37.6945L16.5 34.6945" stroke="white" stroke-width="1.5" stroke-linecap="round" stroke-linejoin="round"/>
<path d="M33 39.1945C34.6569 39.1945 36 37.8513 36 36.1945C36 34.5376 34.6569 33.1945 33 33.1945C31.3431 33.1945 30 34.5376 30 36.1945C30 37.8513 31.3431 39.1945 33 39.1945Z" fill="#10B981" stroke="#059669"/>
<path d="M31.5 36.1945L33 37.6945L34.5 34.6945" stroke="white" stroke-width="1.5" stroke-linecap="round" stroke-linejoin="round"/>
<path d="M25.5 39.1945H22.5C21.6716 39.1945 21 39.866 21 40.6945C21 41.5229 21.6716 42.1945 22.5 42.1945H25.5C26.3284 42.1945 27 41.5229 27 40.6945C27 39.866 26.3284 39.1945 25.5 39.1945Z" fill="#6366F1"/>
<path d="M25.5 39.9445H22.5C22.0858 39.9445 21.75 40.2802 21.75 40.6945C21.75 41.1087 22.0858 41.4445 22.5 41.4445H25.5C25.9142 41.4445 26.25 41.1087 26.25 40.6945C26.25 40.2802 25.9142 39.9445 25.5 39.9445Z" fill="#A5B4FC"/>
<path opacity="0.6" d="M24 6.19446L25.5 9.19446L24 12.1945L22.5 9.19446L24 6.19446Z" fill="#FBBF24"/>
<path opacity="0.6" d="M36 15.1945L39 16.6945L36 18.1945L33 16.6945L36 15.1945Z" fill="#FBBF24"/>
<path opacity="0.6" d="M12 15.1945L15 16.6945L12 18.1945L9 16.6945L12 15.1945Z" fill="#FBBF24"/>
</svg>
