<svg width="66" height="66" viewBox="0 0 66 66" fill="none" xmlns="http://www.w3.org/2000/svg">
<path d="M28.875 24.75H12.375C10.0968 24.75 8.25 26.5968 8.25 28.875V37.125C8.25 39.4032 10.0968 41.25 12.375 41.25H28.875C31.1532 41.25 33 39.4032 33 37.125V28.875C33 26.5968 31.1532 24.75 28.875 24.75Z" fill="#6B7280" stroke="#374151" stroke-width="2"/>
<path d="M8.25 36.0938C9.95863 36.0938 11.3438 34.7086 11.3438 33C11.3438 31.2914 9.95863 29.9062 8.25 29.9062C6.54137 29.9062 5.15625 31.2914 5.15625 33C5.15625 34.7086 6.54137 36.0938 8.25 36.0938Z" fill="#9CA3AF" stroke="#6B7280"/>
<path d="M43.3125 30.9375H35.0625C33.9234 30.9375 33 31.8609 33 33C33 34.1391 33.9234 35.0625 35.0625 35.0625H43.3125C44.4516 35.0625 45.375 34.1391 45.375 33C45.375 31.8609 44.4516 30.9375 43.3125 30.9375Z" fill="#374151"/>
<path d="M48.4688 31.9688H46.4062C45.8367 31.9688 45.375 32.4305 45.375 33C45.375 33.5695 45.8367 34.0312 46.4062 34.0312H48.4688C49.0383 34.0312 49.5 33.5695 49.5 33C49.5 32.4305 49.0383 31.9688 48.4688 31.9688Z" fill="#1F2937"/>
<path d="M49.5 33L57.75 24.75" stroke="#3B82F6" stroke-width="3" stroke-linecap="round"/>
<path d="M49.5 33H55.6875" stroke="#60A5FA" stroke-width="2" stroke-linecap="round"/>
<path d="M49.5 33L57.75 41.25" stroke="#3B82F6" stroke-width="3" stroke-linecap="round"/>
<path opacity="0.8" d="M53.625 21.6562C54.1945 21.6562 54.6562 21.1945 54.6562 20.625C54.6562 20.0555 54.1945 19.5938 53.625 19.5938C53.0555 19.5938 52.5938 20.0555 52.5938 20.625C52.5938 21.1945 53.0555 21.6562 53.625 21.6562Z" fill="#3B82F6"/>
<path opacity="0.7" d="M59.8125 28.3594C60.6668 28.3594 61.3594 27.6668 61.3594 26.8125C61.3594 25.9582 60.6668 25.2656 59.8125 25.2656C58.9582 25.2656 58.2656 25.9582 58.2656 26.8125C58.2656 27.6668 58.9582 28.3594 59.8125 28.3594Z" fill="#60A5FA"/>
<path opacity="0.9" d="M55.6873 19.3875C56.1429 19.3875 56.5123 19.0181 56.5123 18.5625C56.5123 18.1069 56.1429 17.7375 55.6873 17.7375C55.2317 17.7375 54.8623 18.1069 54.8623 18.5625C54.8623 19.0181 55.2317 19.3875 55.6873 19.3875Z" fill="#93C5FD"/>
<path opacity="0.6" d="M61.8752 25.9875C62.5586 25.9875 63.1127 25.4335 63.1127 24.75C63.1127 24.0666 62.5586 23.5125 61.8752 23.5125C61.1917 23.5125 60.6377 24.0666 60.6377 24.75C60.6377 25.4335 61.1917 25.9875 61.8752 25.9875Z" fill="#3B82F6"/>
<path opacity="0.8" d="M53.625 46.4062C54.1945 46.4062 54.6562 45.9445 54.6562 45.375C54.6562 44.8055 54.1945 44.3438 53.625 44.3438C53.0555 44.3438 52.5938 44.8055 52.5938 45.375C52.5938 45.9445 53.0555 46.4062 53.625 46.4062Z" fill="#3B82F6"/>
<path opacity="0.7" d="M59.8125 40.7344C60.6668 40.7344 61.3594 40.0418 61.3594 39.1875C61.3594 38.3332 60.6668 37.6406 59.8125 37.6406C58.9582 37.6406 58.2656 38.3332 58.2656 39.1875C58.2656 40.0418 58.9582 40.7344 59.8125 40.7344Z" fill="#60A5FA"/>
<path opacity="0.9" d="M55.6873 48.2625C56.1429 48.2625 56.5123 47.8931 56.5123 47.4375C56.5123 46.9819 56.1429 46.6125 55.6873 46.6125C55.2317 46.6125 54.8623 46.9819 54.8623 47.4375C54.8623 47.8931 55.2317 48.2625 55.6873 48.2625Z" fill="#93C5FD"/>
<path opacity="0.6" d="M61.8752 42.4875C62.5586 42.4875 63.1127 41.9335 63.1127 41.25C63.1127 40.5666 62.5586 40.0125 61.8752 40.0125C61.1917 40.0125 60.6377 40.5666 60.6377 41.25C60.6377 41.9335 61.1917 42.4875 61.8752 42.4875Z" fill="#3B82F6"/>
<path d="M26.8125 28.875H14.4375C13.2984 28.875 12.375 29.7984 12.375 30.9375V35.0625C12.375 36.2016 13.2984 37.125 14.4375 37.125H26.8125C27.9516 37.125 28.875 36.2016 28.875 35.0625V30.9375C28.875 29.7984 27.9516 28.875 26.8125 28.875Z" fill="#9CA3AF"/>
<path d="M16.5 34.5469C17.3543 34.5469 18.0469 33.8543 18.0469 33C18.0469 32.1457 17.3543 31.4531 16.5 31.4531C15.6457 31.4531 14.9531 32.1457 14.9531 33C14.9531 33.8543 15.6457 34.5469 16.5 34.5469Z" fill="#10B981"/>
<path d="M25.7812 30.9375H21.6562C21.0867 30.9375 20.625 31.3992 20.625 31.9688V34.0312C20.625 34.6008 21.0867 35.0625 21.6562 35.0625H25.7812C26.3508 35.0625 26.8125 34.6008 26.8125 34.0312V31.9688C26.8125 31.3992 26.3508 30.9375 25.7812 30.9375Z" fill="#1F2937"/>
<path d="M20.625 20.625C20.625 19.4859 19.7016 18.5625 18.5625 18.5625C17.4234 18.5625 16.5 19.4859 16.5 20.625V24.75C16.5 25.8891 17.4234 26.8125 18.5625 26.8125C19.7016 26.8125 20.625 25.8891 20.625 24.75V20.625Z" fill="#9CA3AF" stroke="#6B7280"/>
<path opacity="0.2" d="M51.5625 28.875L55.6875 24.75L59.8125 28.875L55.6875 33L51.5625 28.875Z" fill="#3B82F6"/>
</svg>
