<svg width="49" height="49" viewBox="0 0 49 49" fill="none" xmlns="http://www.w3.org/2000/svg">
<path d="M24.2578 42.2427C32.5421 42.2427 39.2578 35.5269 39.2578 27.2427C39.2578 18.9584 32.5421 12.2427 24.2578 12.2427C15.9735 12.2427 9.25781 18.9584 9.25781 27.2427C9.25781 35.5269 15.9735 42.2427 24.2578 42.2427Z" fill="#6B7280" stroke="#374151" stroke-width="2"/>
<path d="M24.2578 39.2427C30.8852 39.2427 36.2578 33.8701 36.2578 27.2427C36.2578 20.6153 30.8852 15.2427 24.2578 15.2427C17.6304 15.2427 12.2578 20.6153 12.2578 27.2427C12.2578 33.8701 17.6304 39.2427 24.2578 39.2427Z" fill="#9CA3AF"/>
<path d="M24.2578 36.2427C29.2284 36.2427 33.2578 32.2132 33.2578 27.2427C33.2578 22.2721 29.2284 18.2427 24.2578 18.2427C19.2872 18.2427 15.2578 22.2721 15.2578 27.2427C15.2578 32.2132 19.2872 36.2427 24.2578 36.2427Z" fill="#F3F4F6"/>
<path d="M15.2578 21.2427L16.7578 22.7427" stroke="#374151" stroke-width="2" stroke-linecap="round"/>
<path d="M12.2578 27.2427H15.2578" stroke="#374151" stroke-width="2" stroke-linecap="round"/>
<path d="M15.2578 33.2427L16.7578 31.7427" stroke="#374151" stroke-width="2" stroke-linecap="round"/>
<path d="M24.2578 15.2427V18.2427" stroke="#374151" stroke-width="2" stroke-linecap="round"/>
<path d="M33.2578 21.2427L31.7578 22.7427" stroke="#374151" stroke-width="2" stroke-linecap="round"/>
<path d="M36.2578 27.2427H33.2578" stroke="#374151" stroke-width="2" stroke-linecap="round"/>
<path d="M33.2578 33.2427L31.7578 31.7427" stroke="#374151" stroke-width="2" stroke-linecap="round"/>
<path d="M24.2578 27.2427L31.7578 22.7427" stroke="#EF4444" stroke-width="3" stroke-linecap="round"/>
<path d="M24.2578 28.7427C25.0862 28.7427 25.7578 28.0711 25.7578 27.2427C25.7578 26.4142 25.0862 25.7427 24.2578 25.7427C23.4294 25.7427 22.7578 26.4142 22.7578 27.2427C22.7578 28.0711 23.4294 28.7427 24.2578 28.7427Z" fill="#DC2626"/>
<path d="M18.2578 9.24268L15.2578 15.2427L19.7578 13.7427L16.7578 19.7427" fill="#FBBF24"/>
<path d="M18.2578 9.24268L15.2578 15.2427L19.7578 13.7427L16.7578 19.7427" stroke="#F59E0B"/>
<path d="M30.2578 7.74268L27.2578 13.7427L31.7578 12.2427L28.7578 18.2427" fill="#FBBF24"/>
<path d="M30.2578 7.74268L27.2578 13.7427L31.7578 12.2427L28.7578 18.2427" stroke="#F59E0B"/>
<path opacity="0.6" d="M6.25781 24.2427H12.2578" stroke="#3B82F6" stroke-width="2" stroke-linecap="round"/>
<path opacity="0.4" d="M7.75781 21.2427H13.7578" stroke="#3B82F6" stroke-width="2" stroke-linecap="round"/>
<path opacity="0.4" d="M7.75781 27.2427H13.7578" stroke="#3B82F6" stroke-width="2" stroke-linecap="round"/>
<path d="M26.5078 33.2427H22.0078C21.5936 33.2427 21.2578 33.5785 21.2578 33.9927V35.4927C21.2578 35.9069 21.5936 36.2427 22.0078 36.2427H26.5078C26.922 36.2427 27.2578 35.9069 27.2578 35.4927V33.9927C27.2578 33.5785 26.922 33.2427 26.5078 33.2427Z" fill="#1F2937"/>
<path d="M26.1328 33.9927H22.3828C22.1757 33.9927 22.0078 34.1606 22.0078 34.3677V35.1177C22.0078 35.3248 22.1757 35.4927 22.3828 35.4927H26.1328C26.3399 35.4927 26.5078 35.3248 26.5078 35.1177V34.3677C26.5078 34.1606 26.3399 33.9927 26.1328 33.9927Z" fill="#10B981"/>
</svg>
