<svg width="66" height="66" viewBox="0 0 66 66" fill="none" xmlns="http://www.w3.org/2000/svg">
<path d="M39.1875 36.0938H10.3125C9.17341 36.0938 8.25 37.0172 8.25 38.1562C8.25 39.2953 9.17341 40.2188 10.3125 40.2188H39.1875C40.3266 40.2188 41.25 39.2953 41.25 38.1562C41.25 37.0172 40.3266 36.0938 39.1875 36.0938Z" fill="#6B7280" stroke="#374151"/>
<path d="M53.625 37.125C53.625 32.5687 49.9313 28.875 45.375 28.875C40.8187 28.875 37.125 32.5687 37.125 37.125V39.1875C37.125 43.7438 40.8187 47.4375 45.375 47.4375C49.9313 47.4375 53.625 43.7438 53.625 39.1875V37.125Z" fill="#F3F4F6" stroke="#D1D5DB" stroke-width="2"/>
<path opacity="0.7" d="M51.5625 37.125C51.5625 33.7077 48.7923 30.9375 45.375 30.9375C41.9577 30.9375 39.1875 33.7077 39.1875 37.125V39.1875C39.1875 42.6048 41.9577 45.375 45.375 45.375C48.7923 45.375 51.5625 42.6048 51.5625 39.1875V37.125Z" fill="#3B82F6"/>
<path opacity="0.5" d="M56.7188 33H50.5312C49.9617 33 49.5 33.4617 49.5 34.0312V42.2812C49.5 42.8508 49.9617 43.3125 50.5312 43.3125H56.7188C57.2883 43.3125 57.75 42.8508 57.75 42.2812V34.0312C57.75 33.4617 57.2883 33 56.7188 33Z" fill="#3B82F6"/>
<path d="M60.8438 16.5H54.6562C54.0867 16.5 53.625 16.9617 53.625 17.5312V48.4688C53.625 49.0383 54.0867 49.5 54.6562 49.5H60.8438C61.4133 49.5 61.875 49.0383 61.875 48.4688V17.5312C61.875 16.9617 61.4133 16.5 60.8438 16.5Z" fill="#E5E7EB" stroke="#D1D5DB"/>
<path opacity="0.8" d="M60.3281 20.625H55.1719C54.8871 20.625 54.6562 20.8559 54.6562 21.1406V44.8594C54.6562 45.1441 54.8871 45.375 55.1719 45.375H60.3281C60.6129 45.375 60.8438 45.1441 60.8438 44.8594V21.1406C60.8438 20.8559 60.6129 20.625 60.3281 20.625Z" fill="#3B82F6"/>
<path opacity="0.6" d="M56.7188 48.4688C57.2883 48.4688 57.75 47.0836 57.75 45.375C57.75 43.6664 57.2883 42.2812 56.7188 42.2812C56.1492 42.2812 55.6875 43.6664 55.6875 45.375C55.6875 47.0836 56.1492 48.4688 56.7188 48.4688Z" fill="#3B82F6"/>
<path opacity="0.5" d="M58.7813 49.5C59.2369 49.5 59.6063 48.5766 59.6063 47.4375C59.6063 46.2984 59.2369 45.375 58.7813 45.375C58.3257 45.375 57.9563 46.2984 57.9563 47.4375C57.9563 48.5766 58.3257 49.5 58.7813 49.5Z" fill="#3B82F6"/>
<path opacity="0.7" d="M60.8438 47.9531C61.1856 47.9531 61.4626 47.2606 61.4626 46.4062C61.4626 45.5519 61.1856 44.8594 60.8438 44.8594C60.5021 44.8594 60.2251 45.5519 60.2251 46.4062C60.2251 47.2606 60.5021 47.9531 60.8438 47.9531Z" fill="#3B82F6"/>
<path d="M12.375 49.5H24.75L26.8125 61.875H10.3125L12.375 49.5Z" fill="#6B7280" stroke="#374151" stroke-width="2"/>
<path d="M12.8906 50.5312H24.2344L25.7812 59.8125H11.8594L12.8906 50.5312Z" fill="#3B82F6"/>
<path d="M10.3125 53.625C8.25 53.625 8.25 57.75 10.3125 57.75" stroke="#374151" stroke-width="2"/>
<path d="M26.8125 53.625C28.875 53.625 28.875 57.75 26.8125 57.75" stroke="#374151" stroke-width="2"/>
<path opacity="0.6" d="M20.625 44.8594C21.4793 44.8594 22.1719 44.1668 22.1719 43.3125C22.1719 42.4582 21.4793 41.7656 20.625 41.7656C19.7707 41.7656 19.0781 42.4582 19.0781 43.3125C19.0781 44.1668 19.7707 44.8594 20.625 44.8594Z" fill="#3B82F6"/>
<path opacity="0.7" d="M33 48.4688C33.5695 48.4688 34.0312 48.007 34.0312 47.4375C34.0312 46.868 33.5695 46.4062 33 46.4062C32.4305 46.4062 31.9688 46.868 31.9688 47.4375C31.9688 48.007 32.4305 48.4688 33 48.4688Z" fill="#60A5FA"/>
<path opacity="0.8" d="M28.875 42.075C29.3307 42.075 29.7 41.7056 29.7 41.25C29.7 40.7944 29.3307 40.425 28.875 40.425C28.4194 40.425 28.05 40.7944 28.05 41.25C28.05 41.7056 28.4194 42.075 28.875 42.075Z" fill="#93C5FD"/>
<path d="M38.1562 37.125H11.3438C10.7742 37.125 10.3125 37.5867 10.3125 38.1562C10.3125 38.7258 10.7742 39.1875 11.3438 39.1875H38.1562C38.7258 39.1875 39.1875 38.7258 39.1875 38.1562C39.1875 37.5867 38.7258 37.125 38.1562 37.125Z" fill="#9CA3AF"/>
</svg>
